/* XPM */
static char * tremfusion_xpm[] = {
"48 48 911 2",
"  	c None",
". 	c #3C727E",
"+ 	c #2C565C",
"@ 	c #204447",
"# 	c #1A3A3C",
"$ 	c #173536",
"% 	c #1A3D3F",
"& 	c #193C3E",
"* 	c #163536",
"= 	c #1E4042",
"- 	c #2B5256",
"; 	c #3B6C76",
"> 	c #366A74",
", 	c #386E76",
"' 	c #34676F",
") 	c #1A3F42",
"! 	c #0E2323",
"~ 	c #275357",
"{ 	c #112B2C",
"] 	c #102C2C",
"^ 	c #133537",
"/ 	c #133435",
"( 	c #14383A",
"_ 	c #0F2728",
": 	c #0E2525",
"< 	c #10292A",
"[ 	c #1C3D3F",
"} 	c #316169",
"| 	c #143132",
"1 	c #2B5D61",
"2 	c #33686F",
"3 	c #346A72",
"4 	c #275155",
"5 	c #2F5C62",
"6 	c #407C8B",
"7 	c #173638",
"8 	c #133739",
"9 	c #0E2424",
"0 	c #0F2627",
"a 	c #294F55",
"b 	c #112A2B",
"c 	c #254A4E",
"d 	c #3E7786",
"e 	c #386D79",
"f 	c #14393B",
"g 	c #30646B",
"h 	c #153839",
"i 	c #112F30",
"j 	c #0F2829",
"k 	c #102828",
"l 	c #122D2E",
"m 	c #142F30",
"n 	c #325F67",
"o 	c #2F5A62",
"p 	c #23474A",
"q 	c #123031",
"r 	c #112C2D",
"s 	c #102929",
"t 	c #0F292A",
"u 	c #113031",
"v 	c #33646D",
"w 	c #417885",
"x 	c #32616A",
"y 	c #32626C",
"z 	c #407D8C",
"A 	c #3E7887",
"B 	c #295055",
"C 	c #164548",
"D 	c #0F2626",
"E 	c #123132",
"F 	c #143739",
"G 	c #123436",
"H 	c #1C4547",
"I 	c #244A4D",
"J 	c #2A5359",
"K 	c #366973",
"L 	c #2D5A61",
"M 	c #1A3B3D",
"N 	c #13383A",
"O 	c #1D4E51",
"P 	c #102A2B",
"Q 	c #0F2727",
"R 	c #102B2C",
"S 	c #183638",
"T 	c #274E52",
"U 	c #2A565C",
"V 	c #123435",
"W 	c #1E3F42",
"X 	c #264B50",
"Y 	c #1F5358",
"Z 	c #24585D",
"` 	c #123335",
" .	c #1A494C",
"..	c #1B5155",
"+.	c #19474A",
"@.	c #28595D",
"#.	c #17383A",
"$.	c #29585C",
"%.	c #215358",
"&.	c #255054",
"*.	c #143C3F",
"=.	c #0F2525",
"-.	c #163435",
";.	c #204143",
">.	c #1A393A",
",.	c #18393B",
"'.	c #2A575E",
").	c #2E5D65",
"!.	c #17474A",
"~.	c #163839",
"{.	c #3C7481",
"].	c #295155",
"^.	c #254E51",
"/.	c #245053",
"(.	c #215D61",
"_.	c #2D6166",
":.	c #2A5F64",
"<.	c #337079",
"[.	c #1D575B",
"}.	c #25585C",
"|.	c #265E62",
"1.	c #205C61",
"2.	c #275D61",
"3.	c #153C3E",
"4.	c #2C5F64",
"5.	c #378291",
"6.	c #346C74",
"7.	c #184244",
"8.	c #102C2D",
"9.	c #173435",
"0.	c #305F67",
"a.	c #102829",
"b.	c #2C5860",
"c.	c #376B76",
"d.	c #22494C",
"e.	c #193B3D",
"f.	c #356872",
"g.	c #23494C",
"h.	c #1C565B",
"i.	c #245D62",
"j.	c #245B60",
"k.	c #2B5E63",
"l.	c #34727B",
"m.	c #2A5E63",
"n.	c #327681",
"o.	c #377E8D",
"p.	c #295F63",
"q.	c #336E78",
"r.	c #336C74",
"s.	c #31666E",
"t.	c #31666C",
"u.	c #31676E",
"v.	c #194244",
"w.	c #1E4B4E",
"x.	c #1B4345",
"y.	c #376872",
"z.	c #31626B",
"A.	c #143032",
"B.	c #295156",
"C.	c #1D3E40",
"D.	c #153E41",
"E.	c #235C60",
"F.	c #2B5B61",
"G.	c #346D74",
"H.	c #24585C",
"I.	c #2B5E62",
"J.	c #387984",
"K.	c #35737F",
"L.	c #3B8392",
"M.	c #2E6065",
"N.	c #336971",
"O.	c #347984",
"P.	c #31656B",
"Q.	c #245356",
"R.	c #205357",
"S.	c #316871",
"T.	c #336A72",
"U.	c #2F6167",
"V.	c #32686E",
"W.	c #2E6267",
"X.	c #3B707A",
"Y.	c #234E53",
"Z.	c #112E2F",
"`.	c #214447",
" +	c #113032",
".+	c #2A5458",
"++	c #102D2D",
"@+	c #17494D",
"#+	c #1B5C61",
"$+	c #2F6369",
"%+	c #285E63",
"&+	c #1A4E52",
"*+	c #31646A",
"=+	c #2D5E64",
"-+	c #184C50",
";+	c #1A4F53",
">+	c #265A5F",
",+	c #316870",
"'+	c #1E484B",
")+	c #30646A",
"!+	c #337B87",
"~+	c #336D75",
"{+	c #2E6067",
"]+	c #2B5559",
"^+	c #183B3C",
"/+	c #23474B",
"(+	c #194649",
"_+	c #224A4C",
":+	c #2F5A60",
"<+	c #1D5155",
"[+	c #32686F",
"}+	c #1D585D",
"|+	c #254F53",
"1+	c #215A5E",
"2+	c #225D61",
"3+	c #1C474A",
"4+	c #1E5C61",
"5+	c #367680",
"6+	c #336C75",
"7+	c #34717A",
"8+	c #336970",
"9+	c #3B7B89",
"0+	c #36737E",
"a+	c #347B89",
"b+	c #337680",
"c+	c #2A5559",
"d+	c #3D7786",
"e+	c #163A3B",
"f+	c #386E79",
"g+	c #22484B",
"h+	c #396D76",
"i+	c #3C7583",
"j+	c #1E494D",
"k+	c #225B60",
"l+	c #2D5F65",
"m+	c #285E62",
"n+	c #3C8492",
"o+	c #336B73",
"p+	c #2A595F",
"q+	c #398695",
"r+	c #1F5C61",
"s+	c #235D61",
"t+	c #34808D",
"u+	c #327C8A",
"v+	c #2F7B89",
"w+	c #307B89",
"x+	c #348392",
"y+	c #317F8D",
"z+	c #347A86",
"A+	c #2B5F64",
"B+	c #346D76",
"C+	c #2D5B60",
"D+	c #264E52",
"E+	c #0F2828",
"F+	c #1C3E41",
"G+	c #38707D",
"H+	c #1F474A",
"I+	c #347986",
"J+	c #295D62",
"K+	c #326A73",
"L+	c #388190",
"M+	c #205B60",
"N+	c #4291A3",
"O+	c #408FA3",
"P+	c #34717C",
"Q+	c #347884",
"R+	c #348290",
"S+	c #336F78",
"T+	c #337A87",
"U+	c #398E9E",
"V+	c #388B9B",
"W+	c #307C8A",
"X+	c #307C8B",
"Y+	c #338291",
"Z+	c #378696",
"`+	c #327782",
" @	c #336F7A",
".@	c #2C5E63",
"+@	c #3E7783",
"@@	c #3F7B8A",
"#@	c #2E5F66",
"$@	c #204B4E",
"%@	c #336168",
"&@	c #326067",
"*@	c #33747F",
"=@	c #31747F",
"-@	c #336E77",
";@	c #326E79",
">@	c #338191",
",@	c #377884",
"'@	c #368A99",
")@	c #398C9D",
"!@	c #3A8FA0",
"~@	c #4A9AB1",
"{@	c #3E91A4",
"]@	c #4192A7",
"^@	c #418DA0",
"/@	c #367C8A",
"(@	c #31808E",
"_@	c #368B9B",
":@	c #3D90A2",
"<@	c #338392",
"[@	c #338493",
"}@	c #358190",
"|@	c #2C5D63",
"1@	c #33646C",
"2@	c #24494D",
"3@	c #132F30",
"4@	c #194143",
"5@	c #3C7782",
"6@	c #337987",
"7@	c #377A86",
"8@	c #326F79",
"9@	c #337E8D",
"0@	c #317F8E",
"a@	c #408C9E",
"b@	c #387884",
"c@	c #3A828F",
"d@	c #3D91A3",
"e@	c #388D9D",
"f@	c #357781",
"g@	c #1D4346",
"h@	c #2A575B",
"i@	c #356A71",
"j@	c #326D76",
"k@	c #377E8B",
"l@	c #3A7681",
"m@	c #4E9EB7",
"n@	c #367681",
"o@	c #3C8696",
"p@	c #378494",
"q@	c #327B87",
"r@	c #305F65",
"s@	c #3E7D8D",
"t@	c #122D2D",
"u@	c #386C78",
"v@	c #164649",
"w@	c #275055",
"x@	c #366971",
"y@	c #346C75",
"z@	c #5BABCD",
"A@	c #4293A8",
"B@	c #3C899B",
"C@	c #4899B0",
"D@	c #509DBB",
"E@	c #38737E",
"F@	c #4291A4",
"G@	c #3E91A3",
"H@	c #346F79",
"I@	c #3F92A5",
"J@	c #4A9BB2",
"K@	c #3A6C75",
"L@	c #458495",
"M@	c #2E6168",
"N@	c #398392",
"O@	c #336B75",
"P@	c #398B9C",
"Q@	c #2F646C",
"R@	c #1A3C3E",
"S@	c #366870",
"T@	c #1C5054",
"U@	c #2A545A",
"V@	c #376E77",
"W@	c #3C889A",
"X@	c #4999B0",
"Y@	c #4295A9",
"Z@	c #397884",
"`@	c #428FA3",
" #	c #5CACCD",
".#	c #4E9DB6",
"+#	c #316B74",
"@#	c #4697AC",
"##	c #3E90A3",
"$#	c #3A8D9E",
"%#	c #4393A8",
"&#	c #398797",
"*#	c #33808C",
"=#	c #32646A",
"-#	c #2C565B",
";#	c #2F707A",
">#	c #327B88",
",#	c #3C7581",
"'#	c #2F5A61",
")#	c #2B545B",
"!#	c #36666D",
"~#	c #1D5053",
"{#	c #3D7380",
"]#	c #3D7885",
"^#	c #4C9DB5",
"/#	c #57A6C6",
"(#	c #55A6C6",
"_#	c #5EABCE",
":#	c #275257",
"<#	c #29565B",
"[#	c #3E7B8C",
"}#	c #40889B",
"|#	c #4294A8",
"1#	c #4898AF",
"2#	c #4797AE",
"3#	c #51A0BB",
"4#	c #4C9CB5",
"5#	c #36747F",
"6#	c #3A6F7A",
"7#	c #1F4144",
"8#	c #438394",
"9#	c #2F5E65",
"0#	c #2F7A88",
"a#	c #346972",
"b#	c #488596",
"c#	c #28555A",
"d#	c #23484B",
"e#	c #2B595E",
"f#	c #285054",
"g#	c #427C89",
"h#	c #3F92A6",
"i#	c #3F90A3",
"j#	c #327D8C",
"k#	c #254B4E",
"l#	c #214042",
"m#	c #234C50",
"n#	c #3B808E",
"o#	c #4D9AB5",
"p#	c #4C9DB7",
"q#	c #4697AB",
"r#	c #448A9E",
"s#	c #3B8C9D",
"t#	c #376C75",
"u#	c #2A5257",
"v#	c #2D5C62",
"w#	c #36676E",
"x#	c #2F7A89",
"y#	c #357785",
"z#	c #376D76",
"A#	c #325A5F",
"B#	c #254E52",
"C#	c #284F53",
"D#	c #3B717C",
"E#	c #3C8EA0",
"F#	c #438EA2",
"G#	c #32656D",
"H#	c #3A6E78",
"I#	c #41737E",
"J#	c #234345",
"K#	c #31747E",
"L#	c #29595F",
"M#	c #4495AA",
"N#	c #368493",
"O#	c #4F9EB9",
"P#	c #4C9BB3",
"Q#	c #396C75",
"R#	c #3E7A89",
"S#	c #21484B",
"T#	c #326268",
"U#	c #377078",
"V#	c #499AB2",
"W#	c #34646B",
"X#	c #3D7582",
"Y#	c #3C7582",
"Z#	c #325E66",
"`#	c #3A6F79",
" $	c #388999",
".$	c #4B9AB1",
"+$	c #285459",
"@$	c #407F90",
"#$	c #38676F",
"$$	c #4B9AB2",
"%$	c #4A99B0",
"&$	c #2E6269",
"*$	c #3B7682",
"=$	c #1F484B",
"-$	c #35636C",
";$	c #255356",
">$	c #4B8EA3",
",$	c #346F77",
"'$	c #3A8B9C",
")$	c #357C88",
"!$	c #4494A9",
"~$	c #3C7F8C",
"{$	c #3F7480",
"]$	c #3B7883",
"^$	c #4091A4",
"/$	c #2C5C61",
"($	c #4B99B2",
"_$	c #4897AE",
":$	c #2E5A60",
"<$	c #427E8E",
"[$	c #2E5D63",
"}$	c #3D7782",
"|$	c #4491A5",
"1$	c #3B8798",
"2$	c #317C8A",
"3$	c #2D575C",
"4$	c #306267",
"5$	c #378594",
"6$	c #39747F",
"7$	c #317E8D",
"8$	c #4594A9",
"9$	c #3F8C9D",
"0$	c #34636D",
"a$	c #376B75",
"b$	c #3C818F",
"c$	c #3F889A",
"d$	c #4B9CB5",
"e$	c #4697AD",
"f$	c #3B8898",
"g$	c #305C62",
"h$	c #427E8D",
"i$	c #2C595D",
"j$	c #328291",
"k$	c #2C595F",
"l$	c #417684",
"m$	c #468190",
"n$	c #437D8A",
"o$	c #366E78",
"p$	c #2C5C62",
"q$	c #2F7380",
"r$	c #306770",
"s$	c #275256",
"t$	c #19383A",
"u$	c #2C5A5F",
"v$	c #3A7A86",
"w$	c #3E747F",
"x$	c #2A5558",
"y$	c #3C6C76",
"z$	c #346E77",
"A$	c #4E9FB9",
"B$	c #3B8E9F",
"C$	c #386A72",
"D$	c #4394A8",
"E$	c #4294A9",
"F$	c #377D89",
"G$	c #357A87",
"H$	c #30717C",
"I$	c #2F7987",
"J$	c #306E78",
"K$	c #35676F",
"L$	c #23494D",
"M$	c #2E5B61",
"N$	c #3A707C",
"O$	c #3C7580",
"P$	c #376B74",
"Q$	c #32646C",
"R$	c #316065",
"S$	c #437F90",
"T$	c #387C88",
"U$	c #376A73",
"V$	c #3C7783",
"W$	c #3F8C9E",
"X$	c #3A808E",
"Y$	c #295458",
"Z$	c #2C555B",
"`$	c #37737E",
" %	c #3B8EA0",
".%	c #388C9D",
"+%	c #378B9B",
"@%	c #358796",
"#%	c #317884",
"$%	c #326069",
"%%	c #366974",
"&%	c #3E7885",
"*%	c #4797AD",
"=%	c #3D7F8D",
"-%	c #3E707C",
";%	c #3B737F",
">%	c #3B737E",
",%	c #368494",
"'%	c #357783",
")%	c #2C595E",
"!%	c #407B89",
"~%	c #34656C",
"{%	c #34666C",
"]%	c #3E7B88",
"^%	c #4394A9",
"/%	c #348696",
"(%	c #32818F",
"_%	c #328392",
":%	c #31818F",
"<%	c #2B5B62",
"[%	c #376C77",
"}%	c #427F8E",
"|%	c #2F5B62",
"1%	c #3B7E8C",
"2%	c #37656C",
"3%	c #316068",
"4%	c #376D75",
"5%	c #36656D",
"6%	c #264B4E",
"7%	c #3B737D",
"8%	c #3C7480",
"9%	c #397F8C",
"0%	c #458292",
"a%	c #2B565B",
"b%	c #386C77",
"c%	c #417B89",
"d%	c #31666D",
"e%	c #39737E",
"f%	c #315D62",
"g%	c #3F7B89",
"h%	c #327884",
"i%	c #2F7683",
"j%	c #22484C",
"k%	c #306B74",
"l%	c #377783",
"m%	c #30626B",
"n%	c #356E78",
"o%	c #3B747F",
"p%	c #37676F",
"q%	c #335E64",
"r%	c #336D77",
"s%	c #265256",
"t%	c #396F78",
"u%	c #376C76",
"v%	c #35656C",
"w%	c #224A4D",
"x%	c #34636A",
"y%	c #386B74",
"z%	c #3A707A",
"A%	c #1B555A",
"B%	c #2F585E",
"C%	c #31646D",
"D%	c #30656E",
"E%	c #418899",
"F%	c #35727D",
"G%	c #356D76",
"H%	c #3F7786",
"I%	c #366C75",
"J%	c #326770",
"K%	c #4998AF",
"L%	c #316066",
"M%	c #397581",
"N%	c #3B7985",
"O%	c #2E4A4D",
"P%	c #326771",
"Q%	c #306369",
"R%	c #3D7E8C",
"S%	c #458FA4",
"T%	c #3E7683",
"U%	c #437F8E",
"V%	c #37707A",
"W%	c #244A4E",
"X%	c #295A5E",
"Y%	c #3E7682",
"Z%	c #1D4245",
"`%	c #386A73",
" &	c #3F7783",
".&	c #3C8291",
"+&	c #305E66",
"@&	c #24474A",
"#&	c #133031",
"$&	c #234A4E",
"%&	c #27494B",
"&&	c #418698",
"*&	c #3A636A",
"=&	c #3D7581",
"-&	c #3A717C",
";&	c #376A74",
">&	c #1D4649",
",&	c #34727D",
"'&	c #1E474A",
")&	c #33646E",
"!&	c #32636A",
"~&	c #3A7380",
"{&	c #458394",
"]&	c #3D8290",
"^&	c #39676E",
"/&	c #3A7884",
"(&	c #21494C",
"_&	c #183739",
":&	c #274B4E",
"<&	c #3A646B",
"[&	c #316269",
"}&	c #33626A",
"|&	c #378998",
"1&	c #397580",
"2&	c #386E77",
"3&	c #428698",
"4&	c #3C8595",
"5&	c #224C4F",
"6&	c #3B727C",
"7&	c #4E9DB8",
"8&	c #2E585F",
"9&	c #3D7783",
"0&	c #3A6D76",
"a&	c #3F8494",
"b&	c #365D62",
"c&	c #3B696F",
"d&	c #315C63",
"e&	c #477680",
"f&	c #306169",
"g&	c #406E77",
"h&	c #3A727F",
"i&	c #305E64",
"j&	c #396E77",
"k&	c #31808F",
"l&	c #34686E",
"m&	c #265156",
"n&	c #3F7A87",
"o&	c #2E6369",
"p&	c #346770",
"q&	c #468596",
"r&	c #2B585E",
"s&	c #224244",
"t&	c #3C707A",
"u&	c #3F7C89",
"v&	c #438190",
"w&	c #35666E",
"x&	c #3B727D",
"y&	c #3E7C8C",
"z&	c #376870",
"A&	c #396F79",
"B&	c #3F7079",
"C&	c #2F575C",
"D&	c #265356",
"E&	c #29575D",
"F&	c #31646B",
"G&	c #2D5A5F",
"H&	c #3E7A86",
"I&	c #346F78",
"J&	c #2E6066",
"K&	c #37727D",
"L&	c #447D8B",
"M&	c #386A74",
"N&	c #306168",
"O&	c #35676E",
"P&	c #3D6E77",
"Q&	c #3D7684",
"R&	c #427E8C",
"S&	c #28565A",
"T&	c #1B4F53",
"U&	c #275E62",
"V&	c #3E7784",
"W&	c #398291",
"X&	c #428899",
"Y&	c #418393",
"Z&	c #457F8D",
"`&	c #377580",
" *	c #3D656B",
".*	c #38717B",
"+*	c #3F7988",
"@*	c #3A7886",
"#*	c #33676E",
"$*	c #295E63",
"%*	c #33666D",
"&*	c #448495",
"**	c #33656C",
"=*	c #3F7C8A",
"-*	c #43879A",
";*	c #478192",
">*	c #36707A",
",*	c #40656C",
"'*	c #3F92A4",
")*	c #397782",
"!*	c #3F7A88",
"~*	c #3F747E",
"{*	c #2F5C63",
"]*	c #2E5E66",
"^*	c #378898",
"/*	c #275559",
"(*	c #386770",
"_*	c #26565A",
":*	c #2A5B61",
"<*	c #396B74",
"[*	c #265559",
"}*	c #1F4D50",
"|*	c #3A7682",
"1*	c #3B8D9E",
"2*	c #1B3E40",
"3*	c #37585C",
"4*	c #315F66",
"5*	c #25484B",
"6*	c #3A676F",
"7*	c #447581",
"8*	c #32656C",
"9*	c #32636B",
"0*	c #3F6971",
"a*	c #368290",
"b*	c #388C9C",
"c*	c #3C8D9D",
"d*	c #2F636A",
"e*	c #34656D",
"f*	c #2C585D",
"g*	c #35717B",
"h*	c #2D5358",
"i*	c #214F53",
"j*	c #397481",
"k*	c #2F737F",
"l*	c #30737F",
"m*	c #336972",
"n*	c #28565B",
"o*	c #2F5D65",
"p*	c #376267",
"q*	c #467C89",
"r*	c #366B72",
"s*	c #356066",
"t*	c #33727C",
"u*	c #317987",
"v*	c #326971",
"w*	c #1D5256",
"x*	c #285155",
"y*	c #2E5C64",
"z*	c #1E484C",
"A*	c #27595E",
"B*	c #3A6A73",
"C*	c #2A585E",
"D*	c #214C4F",
"E*	c #38717E",
"F*	c #39727D",
"G*	c #3D8EA0",
"H*	c #3C8D9E",
"I*	c #337580",
"J*	c #32808F",
"K*	c #1F4D51",
"L*	c #1B3C3F",
"M*	c #325356",
"N*	c #2B5458",
"O*	c #375D62",
"P*	c #3E8DA0",
"Q*	c #3A8696",
"R*	c #336D76",
"S*	c #386D78",
"T*	c #245457",
"U*	c #2E5B63",
"V*	c #26585D",
"W*	c #204F52",
"X*	c #3A707B",
"Y*	c #1E494C",
"Z*	c #1E575B",
"`*	c #2F6268",
" =	c #1A5357",
".=	c #274A4D",
"+=	c #324F52",
"@=	c #2D5E63",
"#=	c #265054",
"$=	c #316972",
"%=	c #328391",
"&=	c #2B585D",
"*=	c #336B76",
"==	c #1B484B",
"-=	c #284E52",
";=	c #3B7381",
">=	c #204649",
",=	c #327C89",
"'=	c #1F5A5F",
")=	c #2B6065",
"!=	c #1B494C",
"~=	c #33747D",
"{=	c #348796",
"]=	c #235D62",
"^=	c #20585D",
"/=	c #2F636C",
"(=	c #2C555A",
"_=	c #398A9B",
":=	c #348695",
"<=	c #368A9A",
"[=	c #2D6066",
"}=	c #33717B",
"|=	c #2F6368",
"1=	c #2A5358",
"2=	c #3E7684",
"3=	c #336870",
"4=	c #28585C",
"5=	c #2D5F66",
"6=	c #3F8493",
"7=	c #356E77",
"8=	c #2B5C61",
"9=	c #438292",
"0=	c #316067",
"a=	c #2B595D",
"b=	c #316167",
"c=	c #326066",
"d=	c #274F53",
"e=	c #295358",
"f=	c #325F66",
"g=	c #468291",
"h=	c #407A88",
"i=	c #305B60",
"j=	c #48889B",
"k=	c #418596",
"l=	c #3D8494",
"m=	c #4590A7",
"n=	c #4395AA",
"o=	c #2C5B62",
"p=	c #346870",
"q=	c #2E6266",
"r=	c #2D585E",
"s=	c #325B62",
"t=	c #2C5A5E",
"u=	c #34747E",
"v=	c #356B74",
"w=	c #3C7986",
"x=	c #458393",
"y=	c #3D7D8A",
"z=	c #366F7A",
"A=	c #184245",
"B=	c #234B4F",
"C=	c #1B3F42",
"D=	c #3B8391",
"E=	c #1A4446",
"F=	c #27565A",
"G=	c #386E78",
"H=	c #305A60",
"I=	c #3F7885",
"J=	c #437B88",
"K=	c #3F7F90",
"L=	c #3D7C88",
"M=	c #3F7580",
"N=	c #416F79",
"O=	c #487F8E",
"P=	c #4A8495",
"Q=	c #376C74",
"R=	c #3D7481",
"                                    . + @ # $ % & * $ = - ;                                     ",
"                              > , ' ) ! ! ~ { ] ^ / ( _ : ! < [ }                               ",
"                          + | 1 2 3 4 5 6   7 8 9 < ! : 0 9 ! ! ! { a                           ",
"                          * b c d         e f g ^ h i j ! ! ! k l 9 9 m n                       ",
"                          o               p 9 q r s ! ! t u _ v   w x y z                       ",
"                A                       B 9 0 C ^ ! u D E F G H I J K                           ",
"              L [                     M ! ! ! N O ! P Q ! j R 8 ! ! ! D S T                     ",
"            U V W                 X Y Z `  .j C ..+.@.#.$.%.&.*.=.! ! ! -.;.>.l ,.'.            ",
"          ).!.~.{.            ].^./.(._.:.<.[.}.|.1.2.3.4.5.6.7.!.8.! 9.      0.a.9 b.          ",
"        c.d.e.f.            g.h.!.i.j.k.l.m.n.o.p.q.r.s.t.u.v.N w.x.h y.        z.9 P f.        ",
"        A.! B.            C.D.E.F.G.H.I.J.K.L.M.N.O.P.Q.R.S.T.U.V.W.X.            Y.Z.|         ",
"      `. +C.            .+++@+#+$+%+&+j.*+m.=+-+;+>+,+'+)+!+~+p.{+1.]+              ^+=./+      ",
"    > (+_+            :+p.<+i.1.W.[+}+|+1+2+%.3+4+m.5+q.6+7+8+9+0+a+b+c+            d+q e+f+    ",
"    g+& h+          i+j+k+i.l+m+k.n+o+p+2 i.$+q+r+s+t+u+v+w+x+y+z+A+B+C+              D+E+F+    ",
"  G+8 H+            + [+I+J+K+L+M+N+O+P+Q+R+r.S+T+r.U+V+W+X+Y+Z+`+ @.@+@                { Q @@  ",
"  #@$@%@            &@*@=@-@;@>@,@'@)@!@~@{@]@^@{+/@(@_@)@:@<@[@}@|@1@                  |+_ 2@  ",
"  3@4@              5@6@7@8@9@0@a@b@c@d@e@f@g@h@i@j@k@l@m@n@o@p@q@r@                    s@_ t@  ",
"u@v@w@              x@y@z@A@B@C@D@E@F@G@U+k@,@H@I@J@K@L@M@N@O@P@Q@                        R@! . ",
"S@T@U@              V@W@X@Y@Z@`@ #.#+#@###Y+$#%#&#*#=#  r@-#;#>#,#                        '#++)#",
"!#~#{#              ]#^#/#(#_#:#<#[#}#^#|#1#2#3#4#5#6#  7#8#9#0#a#                        b#c#d#",
"e#f#                g#h#i#j#k#l#P m#n#o#p#{@q#r#s#t#  u#v#  w#x#y#z#                        A#I ",
"B#C#                D#E#F#G#H#  I#J#K#L#M#|#N#O#P#Q#R#S#T#  U#V#W#X#                            ",
"Y#Z#                `# $.$+$@$      #$S#$$%$&$%$%$*$=$-$;$>$,$'$S.                              ",
"                    X#)$!$~$          {$]$^$/$($%$_$:$<$[$}$|$1$2$3$                            ",
"                      4$Y+5$6$          K+7$D+p 8$9$0$  a$b$c$d$e$f$g$h$                        ",
"                      i$y+j$k$l$m$n$o$p$q$r$s$t$u$v$w$  x$y$z$A$~@X@B$C$                        ",
"                      , D$%$E$F$G$H$I$I$J$K$L$M$N$O$P$Q$R$S$T$U$V$W$X$B+                    Y$Z$",
"                      `$|# %.%+%M#E#@%#%9#  $%@ %%&%*%=%-%2@;%  >%,%'%)%!%u@                ~%{%",
"                      ]%^%/%(%0#_%:%I$<%  [%}%|%1%2%3%4%5%6%7%8%' 9%]+0%a%b%              c%d%e%",
"f%n                   g%h%0#:%W+i%j%k%l%m%n%h+o%%$p%q%r%T.s%  t%%$u%  v%w%                x%%+y%",
"z%A%B%                  C%D%E%F%G%H%I%J%K%%$L%M%N%O%5#P%2%Q%!%R%S%T%U%V%W%                c+X%Y%",
"  %+Z%                      `%     &.&+&B.@&#&$&%&&&!#B#*&k$=&5#-&  ;&V$                  w.>&  ",
"  ,&'&)&                    !&M$~&{&]&^&/&(&2%_&:&g+<&[&}&        :+|&1&                k$`+2&  ",
"  3&4&5&                    6&7&8&  9&0&a&b&c&d&e&f&g&h&i&        j&k&l&                m&,+n&  ",
"    o&[.p&                  q&r&s&t&u&v&w&x&y&z&  A&B&            C&T.D&              E&F&G&    ",
"    H&I&J&                    K&P$w$L&7%M&N&O&P&  Q&            R&f#=@S&              T&U&V&    ",
"      z#W&{+                  X&Y&Z&5@`& *[@.*        N$    +*M@@*9+Y+#*            <#$*%*      ",
"      &***k$b%                =*-*;*>*N%,*'*)*  !*G&  ]+~*{*]*^*1#K%5./*          (*_*:*        ",
"        <*[*}*M%              |*1*.+|%2*3*4*5*6*7*8*{&9*0*a*b*c*}#B$d*e*        V&f*g*-&        ",
"          h*p+i*              j*B$k*4*l*m*n*o*p*q*r*s*B.O&t*u*v*w*x*y*          z*A*B*          ",
"            C*l+D*E*          F*G*H*I*J*F$K*p+L*M*N*O*:@P*Q*R*D*S*            {+T*U*            ",
"              <#V*W*X*          D+Y*Z*=@`* =.=+=@=#=$=%=^%A@&=                J&*=              ",
"                w@==-=            ;=>=,='=)=S#!=r.~={=t.]=^=;&                /=                ",
"                                    (=_=!+:=<=*@)=[=}=u.|=1=        2=                          ",
"                                    6 3=4=m&5=6=W.7=l.O.8=    9=0=a=b=                          ",
"                              c=d=e=f=g=  h=i=j=k=l=m=n=o=a%L%p=q=k$r=                          ",
"                              s=t=u=v=w=x=y=z=_+A=B=C=D=E=/$F=G=H=I=                            ",
"                                  =*J=]%K=L=M=N=O=P=`#*$Q=L%R=                                  "};
