/* XPM */
static char *tremfusion[] = {
/* columns rows colors chars-per-pixel */
"48 48 256 2",
"   c #018805F80505",
".  c #03040CC60AF2",
"X  c #013409F60779",
"o  c #02FE12BF0D71",
"O  c #0540147C13A1",
"+  c #05CB1A6E14CE",
"@  c #0AF01E371BFC",
"#  c #06BD1E031C28",
"$  c #062C24261E2A",
"%  c #0846217C1E70",
"&  c #0B14239621C1",
"*  c #0AC129F32399",
"=  c #0BE82A5E28EC",
"-  c #04FB290525F3",
";  c #13BF2CCB2AA8",
":  c #0C3F33072DA4",
">  c #11AA35E92DEE",
",  c #046837303255",
"<  c #0D85362D30EE",
"1  c #0928380032AA",
"2  c #0B633E113A9E",
"3  c #04DE3CB238CF",
"4  c #118E356D3199",
"5  c #15433C443674",
"6  c #160836313627",
"7  c #01BB41E63CE5",
"8  c #197941793F16",
"9  c #0A8744DA41F4",
"0  c #03F74D0C43C1",
"q  c #0DE44BD342F3",
"w  c #04154B6447D1",
"e  c #0FA345163FD2",
"r  c #14BF4D044C57",
"t  c #17B24A4443A7",
"y  c #05E2551F4B70",
"u  c #0B7254A14D7F",
"i  c #0434560B4A4A",
"p  c #0659576E5112",
"a  c #0D5B55C6511E",
"s  c #0D885B9759AB",
"d  c #0B105C7A51B8",
"f  c #13A256515199",
"g  c #1C76514E5212",
"h  c #16025CD7593F",
"j  c #1E595B965BCF",
"k  c #24114CC94C41",
"l  c #238F544F4D03",
"z  c #218D5B445B1D",
"x  c #24D257FE5536",
"c  c #1A3661C05DE4",
"v  c #2B2861E35E41",
"b  c #27E869395F36",
"n  c #22C263D2585A",
"m  c #28255FA56223",
"M  c #26EA57EA6A8D",
"N  c #31515BE868D8",
"B  c #0D7369A6636D",
"V  c #110166B461A2",
"C  c #1DD3649B6240",
"Z  c #1B1E66916D3D",
"A  c #15CC6C3D6CAD",
"S  c #1BAB6B826BD3",
"D  c #170566746D0C",
"F  c #180A73216A6B",
"G  c #0F7D6F36719F",
"H  c #1BA86FD17410",
"J  c #12A176417670",
"K  c #1B39730771FC",
"L  c #1D1E7A5873B2",
"P  c #1DD074367C1C",
"I  c #14B479EB7BC6",
"U  c #1A457E627924",
"Y  c #12EB76877856",
"T  c #2AC96454653C",
"R  c #23196A476B86",
"E  c #2C796C1D6CF4",
"W  c #2555664F66FC",
"Q  c #33406B0C69F7",
"!  c #20B270CA6EB8",
"~  c #2A09730A6F60",
"^  c #369571AB6CCF",
"/  c #22EA625472AD",
"(  c #22846E147564",
")  c #2C626BD7725D",
"_  c #22CE6CE47D72",
"`  c #2B916B5F7D17",
"'  c #29406637797B",
"]  c #34CB6C247570",
"[  c #39A06F21702A",
"{  c #225073E7758D",
"}  c #2A06713E7396",
"|  c #21D674577C0A",
" . c #290C79047CB9",
".. c #35D67266742E",
"X. c #3941719C7527",
"o. c #3B3473787C51",
"O. c #377F76077A60",
"+. c #42E16F3E7A17",
"@. c #41457A727DC9",
"#. c #426476EA7C98",
"$. c #1F4B7D168662",
"%. c #28866EAC8288",
"&. c #31766FB983E9",
"*. c #25BB75378430",
"=. c #2DEE74A98621",
"-. c #23C87E4D8445",
";. c #2C527C8E83F3",
":. c #2705773F8A58",
">. c #33A9735485EB",
",. c #3AB377848529",
"<. c #347C7BC1847E",
"1. c #3C387DE282B4",
"2. c #32E974DB8B89",
"3. c #39F272CD8A5D",
"4. c #30B67C7D8CA7",
"5. c #38AE7CE88DC4",
"6. c #2C127CF69333",
"7. c #33427DB192E6",
"8. c #3ACE7BAE93D3",
"9. c #42F47D168760",
"0. c #43B27DAD93D6",
"q. c #4D997FE3A014",
"w. c #4CB27FC591BF",
"e. c #13B1836684F0",
"r. c #1A0284818C89",
"t. c #151A8E389031",
"y. c #294483D180F2",
"u. c #2391808C8F9F",
"i. c #2D1783D78ADC",
"p. c #27E58BEE88BF",
"a. c #340A827E879D",
"s. c #34498A578DEF",
"d. c #38BE84968B96",
"f. c #22C293D08CE7",
"g. c #2C5E842D9516",
"h. c #241C88F793F8",
"j. c #25B48C519A56",
"k. c #2BEE8D719B8B",
"l. c #2A0286EC9668",
"z. c #3408854595C0",
"x. c #3A4B843294B3",
"c. c #33C58C4B9706",
"v. c #3A5C8A9B957C",
"b. c #33A186959C2D",
"n. c #3BAD856E9CB3",
"m. c #36528A3C9C97",
"M. c #38578A4D9BD5",
"N. c #2F1C979C98E2",
"B. c #2893916499E5",
"V. c #399C91F69DF8",
"C. c #342C937099B7",
"Z. c #2DD08C2BA1E7",
"A. c #34D38C4CA36B",
"S. c #3B958C2EA41C",
"D. c #3DE08FEAA943",
"F. c #35368A25A507",
"G. c #2C5D944DA40C",
"H. c #2E8E9600AC4E",
"J. c #238698DEA724",
"K. c #3D6992B7A54E",
"L. c #34989747AB79",
"P. c #3960941DABA3",
"I. c #30C49B8BAB74",
"U. c #3EF69D76A9D9",
"Y. c #36C19897A3AB",
"T. c #2DB59EE3B51B",
"R. c #35FA9892B242",
"E. c #2825A41AAEC8",
"W. c #3D92A249A9FD",
"Q. c #3A9CA122BAC9",
"!. c #442984F48C03",
"~. c #4A9B835E8D4E",
"^. c #404E8A2F9547",
"/. c #49F28967960C",
"(. c #41DD858D9A2C",
"). c #4A3D82D09D8A",
"_. c #44058A699C10",
"`. c #4AC98A549B2D",
"'. c #488D840093C8",
"]. c #50728092986E",
"[. c #50F1854D9719",
"{. c #63228B7F9FCE",
"}. c #43358D31A42D",
"|. c #49C18D91A436",
" X c #41E79001A957",
".X c #48B48AB0A827",
"XX c #56828893A8E1",
"oX c #5E868D85AC83",
"OX c #42FB91B6A47C",
"+X c #495C940AA60C",
"@X c #432793F0AB7A",
"#X c #4EB793C2A9D2",
"$X c #45839B59AD2D",
"%X c #487A997DAEBE",
"&X c #40EC9A04A6A5",
"*X c #52199299A6EF",
"=X c #52CC92CFAD0F",
"-X c #59E8991BAAE3",
";X c #49239455B27A",
":X c #43D09BA6B271",
">X c #4BFF9B4AB502",
",X c #48139C72B879",
"<X c #435A9EA2BA1F",
"1X c #51D992AFB396",
"2X c #5B4F96D3B2B8",
"3X c #543F9A9BB40A",
"4X c #5CB99BEDB491",
"5X c #5BC99E75B9F1",
"6X c #690198E9AF53",
"7X c #63109BA2B938",
"8X c #422CA09BB0C5",
"9X c #4B3DA4E7B61D",
"0X c #43C6A812BBC6",
"qX c #5C54A20FB731",
"wX c #587FA21CB862",
"eX c #580BA7B6BD83",
"rX c #625CA1B6BA6D",
"tX c #6A1EA44DBB1A",
"yX c #665DAAFABFDB",
"uX c #79C8A55DBED0",
"iX c #3DFAA4AFC410",
"pX c #30A1AE67C95F",
"aX c #3E67B1ACDB97",
"sX c #4A669D7BC2EF",
"dX c #40CD9DFEC1DC",
"fX c #4D54A2EFC0EB",
"gX c #5152A63FC9B3",
"hX c #5B3EB3E0D000",
"jX c #477EA75DD232",
"kX c #5645A67FD0E2",
"lX c #6A6FA7D5C7DB",
"zX c #5FEBAA49C88E",
"xX c #5FE1A5AFC298",
"cX c #71CEA8D9C2A0",
"vX c #7E51AFFAC9A5",
"bX c #74EDAAECCAB9",
"nX c #6BF1B32ACC47",
"mX c #7F9DB92ACEBF",
"MX c #74E3B150CBBB",
"NX c #7644B4E1D58B",
"BX c #7DB5B7A2D335",
"VX c #7827B5C9DFC0",
"CX c #7EEDBB78DAE1",
"ZX c #6043BBA9E8FF",
"AX c #7906BAC6E200",
"SX c #7974C343E2B2",
"DX c #813EB8E8D5EC",
"FX c #89BEC1CED92D",
"GX c #9A49C0B7D429",
"HX c #8BD8C0E6E895",
"JX c #9507C55FE473",
"KX c #B22DCE55EF29",
"LX c #B772D719EFC8",
"PX c #A3E1CB20F102",
"IX c #D1FBDF06F67B",
"UX c None",
/* pixels */
"UXUXUXUXUXUXUXUXUXUXUXUXUXUXUXUXUXUXUXUXUXUXUXUXUXUXUXUXUXUXUXUXUXUXUXUXUXUXUXUXUXUXUXUXUXUXUXUX",
"UXUXUXUXUXUXUXUXUXUXUXUXUXUXUXUXUXUXUXUXUXUXUXUXUXUXUXUXUXUXUXUXUXUXUXUXUXUXUXUXUXUXUXUXUXUXUXUX",
"UXUXUXUXUXUXUXUXUXUXUXUXUXUXUXUXUXUXG 7 , r = 9 2 = O O . UXUXUXUXUXUXUXUXUXUXUXUXUXUXUXUXUXUXUX",
"UXUXUXUXUXUXUXUXUXUXUXUXUXUXUXu -.R.r.a UXUX3 2 4 = & @ o   X . UXUXUXUXUXUXUXUXUXUXUXUXUXUXUXUX",
"UXUXUXUXUXUXUXUXUXUXUXUXUXUXw 0 UXUXUXUXUXUXh C 1 < - + .   X . . X UXUXUXUXUXUXUXUXUXUXUXUXUXUX",
"UXUXUXUXUXUXUXUXUXUXUXUXUXUXUXUXUXUXUXUXUXUXu f e * $ & ; ; UXUXUXUXUXUXUXUXUXUXUXUXUXUXUXUXUXUX",
"UXUXUXUXUXUXUXUXUXUXUXUXUXUXUXUXUXUXUXUXUX0 p d 1 & * 4 6 6 k UXUXUXUXUXUXUXUXUXUXUXUXUXUXUXUXUX",
"UXUXUXUXUXUXUXUXUX0 UXUXUXUXUXUXUXUXUXUXp y 0 s 9 2 < > 5 5 = o o o + UXUXUXUXUXUXUXUXUXUXUXUXUX",
"UXUXUXUXUXUXUXUXy 0 UXUXUXUXUXUXUX} J K V A a s B P X.....T : : 4 $ UXUXUX; @ UXUXUXUXUXUXUXUXUX",
"UXUXUXUXUXUXUXUXc UXUXUXUXUXUXUXh S F !  . .{ *.I P Z E O.g g r r UXUXUXUXUXo + UXUXUXUXUXUXUXUX",
"UXUXUXUXUXUXUX9 UXUXUXUXUXUXUXa h R { T !.OXv.;.-.| ( ) E m ) R { UXUXUXUXUXUX> UXUXUXUXUXUXUXUX",
"UXUXUXUXUXUXq q UXUXUXUXUXUXt u V <.R x o.@.E z R R j H -.( } Z A UXUXUXUXUXUXUX* UXUXUXUXUXUXUX",
"UXUXUXUXUXUXR UXUXUXUXUXUXv C S K ( E l v Q z z ) ;.| r.j.k.}.i.k.^.UXUXUXUXUXUX: 8 UXUXUXUXUXUX",
"UXUXUXUXUX} UXUXUXUXUXUXW S { ^.d.<.~.X.#.X.,.,.] $.j.h.h.G.G.$.*.) UXUXUXUXUXUXUX& UXUXUXUXUXUX",
"UXUXUXUXUXC UXUXUXUXUXUXE y.d.9./.1.-X`././.9.~.[.z.Z.h.h.G.G.z.( UXUXUXUXUXUXUXUX# % UXUXUXUXUX",
"UXUXUXUXz ~ UXUXUXUXUXUX!.a.1.O.!.+XwX@X%X*XrXMXqXx.g.H.m.@X+X0.UXUXUXUXUXUXUXUXUXUX% UXUXUXUXUX",
"UXUXUXUXq UXUXUXUXUXUXUX<.<XL.x.OXNXBX,XK./.cXlX5X XUX X`.`.@XUXUXUXUXUXUXUXUXUXUXUX: UXUXUXUXUX",
"UXUXUXUXn UXUXUXUXUXUXUXv.iXpXP.fXzXtX5X#X'.*X=X;X8.UX] `.'.x.UXUXUXUXUXUXUXUXUXUXUXg t UXUXUXUX",
"UXUXUX^ b UXUXUXUXUXUXUX:XgXaXZXJXmXDXcX4X|.OXxX>XUXUXUXUXo.n.UXUXUXUXUXUXUXUXUXUXUXUXT UXUXUXUX",
"UXUXUX{ UXUXUXUXUXUXUXUX@X>XR.HXIXLXvXtX-XS.3XbX|.UXUXUXUX(.=X7XUXUXUXUXUXUXUXUXUXUXUXUXUXUXUXUX",
"UXUXUXUXUXUXUXUXUXUXUXUXl.0XCXUXUXUX6X-X>XA.).5X+XUXUXUXUX*X2XUXUXUXUXUXUXUXUXUXUXUXUXUXUXUXUXUX",
"UXUXUXUXUXUXUXUXUXUXUXUXi.W.eXUXUXUXUXUX:XA.n.9X9X*XUX_.UX_.(.UXUXUXUXUXUXUXUXUXUXUXUXUXUXUXUXUX",
"UXUXUXUXUXUXUXUXUXUXUXUXa.N.Y.UXUXUXUXUXUXA.|.nX9X_.UXx.OX:X@X|.UXUXUXUXUXUXUXUXUXUXUXUXUXUXUXUX",
"UXUXUXUXUXUXUXUXUXUXUXUXUXp.B.UXUXUXUXUX=.x.uXGXOXUXUXUXUXQ.iX;X#XM.UXUXUXUXUXUXUXUXUXUXUXUXUXUX",
"UXUXUXUXUXUXUXUXUXUXUXUXUXC.W.U.c.z.c.4.` UXUXUXUXx.UXUXUXn.UX1X7X_.UXUXUXUXUXUXUXUXUXF UXUXUXUX",
"UXUXUXUXUXUXUXUXUXUXUXUXUXV.&XK.V.Y.V.M.UXUXUXUXUX$X%XUX*XUXUX#X#X<.UXUXUXUXUXUXUXUXUXp.UXUXUXUX",
"UXUXUXUXUXUXUXUXUXUXUXUXUXc.c.V.c.z.z.z.UXUXUXOXOXUX|.>.UXUXUX$XUXUXv.UXUXUXUXUXUXUXUXy.UXUXUXUX",
"UXUXUXUXUXUXUXUXUXUXUXUXUXi.s.$XM.4.UXv.x.}.x.@X@XUX}.n.UXUX8XU.UXUXUXUXUXUXUXUXUXUXL K UXUXUXUX",
"UXUXUXUXB UXUXUXUXUXUXUXUXUXUX3XUXUXUX7.7.x.5.x.(..X8.UXUXUXm.UXUXS.UXUXUXUXUXUXUXUXA UXUXUXUXUX",
"UXUXUXUXL f UXUXUXUXUXUXUXUXUXUXUXUXS.n._.(.(.>..X.X}.UXUXUXUXUXb.F.UXUXUXUXUXUXUXUXU UXUXUXUXUX",
"UXUXUXUXUXs.UXUXUXUXUXUXUXUXUXUXyXUXUX2X3X+X}.1XUXUXUXUXUXUXUXUXz.7.UXUXUXUXUXUXUXp.f.UXUXUXUXUX",
"UXUXUXUXUX-.UXUXUXUXUXUXUXUXUXUXPXKXUXUXUXUXUXUXUXUXUXUXUXUXUXUX2.=.UXUXUXUXUXUXUXU UXUXUXUXUXUX",
"UXUXUXUXUXUXI.UXUXUXUXUXUXUXUXUXVXNXUX>XUXz.UXUXUXUXUXUXUXUXUXUXx.=.UXUXUXUXUXUXK L UXUXUXUXUXUX",
"UXUXUXUXUXUXE.J.UXUXUXUXUXUXUXUXsXsXUX:Xz.b.UXUXUXUXUXUXUXUX:XeX|.,.UXUXUXUXUXUX{ UXUXUXUXUXUXUX",
"UXUXUXUXUXUXUXe.UXUXUXUXUXUXUXUXjXdXUXkXS.R.UXUXq.UXUXUX3..X1X2Xw.] UXUXUXUXUX..UXUXUXUXUXUXUXUX",
"UXUXUXUXUXUXUXUXY UXUXUXUXUXUXUXT.H.6.2.7.UX).uXoXXXUX3.8.n.0.].+.UXUXUXUXUXQ @.UXUXUXUXUXUXUXUX",
"UXUXUXUXUXUXUXUXe.t.UXUXUXUXUXUXT.I.A.2.F.2.].{.UX).g.n.n.>.UXUXUXUXUXUXUX[ T UXUXUXUXUXUXUXUXUX",
"UXUXUXUXUXUXUXUXUXI Y UXUXUXUXUXUX_ / ` *./ UXN &.' 6.H.P.UXUXUXUXUXUXUXUX@.UXUXUXUXUXUXUXUXUXUX",
"UXUXUXUXUXUXUXUXUXUXUXD UXUXUXUXUXUXUX:._ _ M M 6.7.:.%.' UXUXUXUXUXUXUXUXUXUXUXUXUXUXUXUXUXUXUX",
"UXUXUXUXUXUXUXUXUXUXUXUXUXUXUXUXUXUXUXj.u.h.A.2.' %.*.>.UXUXUXUXUXUXUXUXUXUXUXUXUXUXUXUXUXUXUXUX",
"UXUXUXUXUXUXUXUXUXUXUXUXUXUXUXUXUXUXUXUXP UXFXAXS.b.b.4.UXUXUXG.b.UXUXUXUXUXUXUXUXUXUXUXUXUXUXUX",
"UXUXUXUXUXUXUXUXUXUXUXUXUXUXUXUXD z.M.A.UXUXDXJXrXP.D.` Z Z.g.| UXUXUXUXUXUXUXUXUXUXUXUXUXUXUXUX",
"UXUXUXUXUXUXUXUXUXUXUXUXUXUXUXUXUXUXL.hXSXwXBXJXCX Xn./ D UXUXUXUXUXUXUXUXUXUXUXUXUXUXUXUXUXUXUX",
"UXUXUXUXUXUXUXUXUXUXUXUXUXUXUXUXUXUXUXUXUXUXUXUXUXUXUXUXUXUXUXUXUXUXUXUXUXUXUXUXUXUXUXUXUXUXUXUX",
"UXUXUXUXUXUXUXUXUXUXUXUXUXUXUXUXUXUXUXUXUXUXUXUXUXUXUXUXUXUXUXUXUXUXUXUXUXUXUXUXUXUXUXUXUXUXUXUX",
"UXUXUXUXUXUXUXUXUXUXUXUXUXUXUXUXUXUXUXUXUXUXUXUXUXUXUXUXUXUXUXUXUXUXUXUXUXUXUXUXUXUXUXUXUXUXUXUX",
"UXUXUXUXUXUXUXUXUXUXUXUXUXUXUXUXUXUXUXUXUXUXUXUXUXUXUXUXUXUXUXUXUXUXUXUXUXUXUXUXUXUXUXUXUXUXUXUX",
"UXUXUXUXUXUXUXUXUXUXUXUXUXUXUXUXUXUXUXUXUXUXUXUXUXUXUXUXUXUXUXUXUXUXUXUXUXUXUXUXUXUXUXUXUXUXUXUX"
};
